<?xml version="1.0" encoding="UTF-8"?>
<!DOCTYPE svg PUBLIC "-//W3C//DTD SVG 1.1//EN" "http://www.w3.org/Graphics/SVG/1.1/DTD/svg11.dtd">
<svg xmlns="http://www.w3.org/2000/svg" version="1.1" width="500px" height="500px" style="shape-rendering:geometricPrecision; text-rendering:geometricPrecision; image-rendering:optimizeQuality; fill-rule:evenodd; clip-rule:evenodd" xmlns:xlink="http://www.w3.org/1999/xlink">
<g><path style="opacity:1" fill="#40aae1" d="M 414.5,352.5 C 414.5,326.167 414.5,299.833 414.5,273.5C 407.978,273.823 401.645,273.49 395.5,272.5C 397.646,263.914 399.479,255.247 401,246.5C 403.698,236.552 400.198,230.218 390.5,227.5C 392.359,221.09 394.526,214.757 397,208.5C 398.285,195.286 392.451,189.286 379.5,190.5C 379.833,189.167 380.167,187.833 380.5,186.5C 386.079,177.496 384.079,170.663 374.5,166C 368.48,165.334 362.813,166.334 357.5,169C 355.688,172.922 355.021,177.089 355.5,181.5C 355.175,188.622 355.841,195.622 357.5,202.5C 356.423,201.982 355.256,201.648 354,201.5C 348.857,202.203 343.691,202.703 338.5,203C 334.153,206.348 330.486,210.348 327.5,215C 326.906,215.464 326.239,215.631 325.5,215.5C 312.776,210.368 300.109,205.034 287.5,199.5C 286.201,200.09 285.368,201.09 285,202.5C 284.685,204.586 284.185,206.586 283.5,208.5C 279.12,209.224 277.12,211.89 277.5,216.5C 273.5,216.5 269.5,216.5 265.5,216.5C 258.492,216.334 251.492,216.5 244.5,217C 242.253,218.277 240.253,219.777 238.5,221.5C 236.535,219.512 234.202,218.012 231.5,217C 197.835,216.5 164.168,216.333 130.5,216.5C 126.154,216.334 121.821,216.501 117.5,217C 110.578,220.253 106.245,225.586 104.5,233C 104.922,237.788 106.589,241.954 109.5,245.5C 109.557,246.609 109.89,247.609 110.5,248.5C 103.963,250.304 97.2962,252.137 90.5,254C 74.3795,262.047 66.2128,275.213 66,293.5C 65.2385,301.577 65.7385,309.577 67.5,317.5C 67.4573,318.416 67.1239,319.083 66.5,319.5C 65.8501,319.804 65.1835,320.137 64.5,320.5C 58.2376,319.273 51.9043,318.44 45.5,318C 44.2958,316.647 43.6292,314.981 43.5,313C 52.2013,232.486 60.8679,151.986 69.5,71.5C 198.85,85.4407 328.183,99.4407 457.5,113.5C 451.1,193.195 444.267,272.861 437,352.5C 429.459,352.792 421.959,352.792 414.5,352.5 Z"/></g>
<g><path style="opacity:1" fill="#543240" d="M 380.5,186.5 C 380.489,184.314 379.489,183.481 377.5,184C 376.745,186.175 375.912,188.341 375,190.5C 375.077,186.771 374.91,183.104 374.5,179.5C 372.224,178.787 369.891,178.287 367.5,178C 365.946,176.108 364.112,174.608 362,173.5C 360.253,175.285 358.42,176.952 356.5,178.5C 361.994,180.895 361.661,181.895 355.5,181.5C 355.021,177.089 355.688,172.922 357.5,169C 362.813,166.334 368.48,165.334 374.5,166C 384.079,170.663 386.079,177.496 380.5,186.5 Z"/></g>
<g><path style="opacity:1" fill="#f1ae9a" d="M 380.5,186.5 C 380.167,187.833 379.833,189.167 379.5,190.5C 378.115,191.614 376.615,192.614 375,193.5C 372.87,198.087 371.037,202.753 369.5,207.5C 364.513,208.001 360.513,206.335 357.5,202.5C 355.841,195.622 355.175,188.622 355.5,181.5C 361.661,181.895 361.994,180.895 356.5,178.5C 358.42,176.952 360.253,175.285 362,173.5C 364.112,174.608 365.946,176.108 367.5,178C 369.891,178.287 372.224,178.787 374.5,179.5C 374.91,183.104 375.077,186.771 375,190.5C 375.912,188.341 376.745,186.175 377.5,184C 379.489,183.481 380.489,184.314 380.5,186.5 Z"/></g>
<g><path style="opacity:1" fill="#653f49" d="M 364.5,180.5 C 366.665,180.116 368.332,180.783 369.5,182.5C 368.467,183.452 367.3,183.452 366,182.5C 364.97,182.164 364.47,181.497 364.5,180.5 Z"/></g>
<g><path style="opacity:1" fill="#5166af" d="M 390.5,227.5 C 388.5,230.833 386.5,234.167 384.5,237.5C 384.666,232.489 384.499,227.489 384,222.5C 379.019,217.684 374.185,212.684 369.5,207.5C 371.037,202.753 372.87,198.087 375,193.5C 376.615,192.614 378.115,191.614 379.5,190.5C 392.451,189.286 398.285,195.286 397,208.5C 394.526,214.757 392.359,221.09 390.5,227.5 Z"/></g>
<g><path style="opacity:1" fill="#0c2331" d="M 325.5,215.5 C 326.209,216.404 327.209,216.737 328.5,216.5C 327.497,221.173 326.497,225.839 325.5,230.5C 323.246,235.187 322.079,240.187 322,245.5C 326.31,248.049 330.81,250.215 335.5,252C 334.944,252.383 334.611,252.883 334.5,253.5C 330.833,252.167 327.167,250.833 323.5,249.5C 319.787,248.036 316.12,246.369 312.5,244.5C 310.539,242.887 308.206,241.887 305.5,241.5C 296.167,237.5 286.833,233.5 277.5,229.5C 278.125,226.373 279.125,223.373 280.5,220.5C 281.675,220.719 282.675,220.386 283.5,219.5C 285.807,215.696 285.807,212.029 283.5,208.5C 284.185,206.586 284.685,204.586 285,202.5C 285.368,201.09 286.201,200.09 287.5,199.5C 300.109,205.034 312.776,210.368 325.5,215.5 Z"/></g>
<g><path style="opacity:1" fill="#0684c3" d="M 357.5,202.5 C 360.513,206.335 364.513,208.001 369.5,207.5C 374.185,212.684 379.019,217.684 384,222.5C 384.499,227.489 384.666,232.489 384.5,237.5C 382.99,245.756 381.99,254.089 381.5,262.5C 379.833,262.5 378.167,262.5 376.5,262.5C 360.662,257.12 344.662,251.287 328.5,245C 327.132,243.66 325.799,242.326 324.5,241C 325.563,238.102 327.23,235.602 329.5,233.5C 328.533,232.016 327.2,231.016 325.5,230.5C 326.497,225.839 327.497,221.173 328.5,216.5C 327.209,216.737 326.209,216.404 325.5,215.5C 326.239,215.631 326.906,215.464 327.5,215C 330.486,210.348 334.153,206.348 338.5,203C 343.691,202.703 348.857,202.203 354,201.5C 355.256,201.648 356.423,201.982 357.5,202.5 Z"/></g>
<g><path style="opacity:1" fill="#ebb09d" d="M 283.5,208.5 C 285.807,212.029 285.807,215.696 283.5,219.5C 282.675,220.386 281.675,220.719 280.5,220.5C 279.488,219.128 278.488,217.795 277.5,216.5C 277.12,211.89 279.12,209.224 283.5,208.5 Z"/></g>
<g><path style="opacity:1" fill="#562711" d="M 130.5,216.5 C 136.176,218.863 139.176,223.196 139.5,229.5C 136.775,230.87 136.108,232.87 137.5,235.5C 136.999,237.836 135.999,239.836 134.5,241.5C 133.282,240.839 131.949,240.172 130.5,239.5C 131.689,238.571 133.022,238.238 134.5,238.5C 134.719,237.325 134.386,236.325 133.5,235.5C 129.911,234.125 126.744,232.125 124,229.5C 123.405,233.082 122.071,233.416 120,230.5C 116.023,233.12 114.19,236.787 114.5,241.5C 114.167,241.5 113.833,241.5 113.5,241.5C 113.824,238.32 112.49,237.153 109.5,238C 108.351,240.459 108.351,242.959 109.5,245.5C 106.589,241.954 104.922,237.788 104.5,233C 106.245,225.586 110.578,220.253 117.5,217C 121.821,216.501 126.154,216.334 130.5,216.5 Z"/></g>
<g><path style="opacity:1" fill="#5165ae" d="M 130.5,216.5 C 164.168,216.333 197.835,216.5 231.5,217C 234.202,218.012 236.535,219.512 238.5,221.5C 241.259,236.388 243.259,251.388 244.5,266.5C 240.007,271.468 235.507,276.468 231,281.5C 230.805,282.819 230.972,284.153 231.5,285.5C 229.5,288.833 227.5,292.167 225.5,295.5C 223.035,295.767 220.701,296.434 218.5,297.5C 217.833,297.5 217.167,297.5 216.5,297.5C 215.833,297.5 215.167,297.5 214.5,297.5C 212.901,297.232 211.568,297.566 210.5,298.5C 209.5,298.5 208.5,298.5 207.5,298.5C 197.628,297.181 187.628,297.181 177.5,298.5C 176.502,290.193 176.169,281.86 176.5,273.5C 170.833,273.5 165.167,273.5 159.5,273.5C 156.391,263.221 150.058,255.888 140.5,251.5C 141.748,250.666 142.415,249.333 142.5,247.5C 141.856,241.3 140.856,235.3 139.5,229.5C 139.176,223.196 136.176,218.863 130.5,216.5 Z"/></g>
<g><path style="opacity:1" fill="#3a519d" d="M 265.5,216.5 C 263.229,218.266 261.063,220.266 259,222.5C 258.955,230.902 259.788,239.235 261.5,247.5C 256.175,254.157 250.509,260.49 244.5,266.5C 243.259,251.388 241.259,236.388 238.5,221.5C 240.253,219.777 242.253,218.277 244.5,217C 251.492,216.5 258.492,216.334 265.5,216.5 Z"/></g>
<g><path style="opacity:1" fill="#5165ad" d="M 265.5,216.5 C 269.5,216.5 273.5,216.5 277.5,216.5C 278.488,217.795 279.488,219.128 280.5,220.5C 279.125,223.373 278.125,226.373 277.5,229.5C 272.532,235.803 267.198,241.803 261.5,247.5C 259.788,239.235 258.955,230.902 259,222.5C 261.063,220.266 263.229,218.266 265.5,216.5 Z"/></g>
<g><path style="opacity:1" fill="#0163a6" d="M 375.5,218.5 C 376.552,218.351 377.552,218.517 378.5,219C 375.898,219.883 373.731,221.383 372,223.5C 369.291,230.709 366.958,238.042 365,245.5C 364.704,238.672 365.704,232.006 368,225.5C 369.742,222.254 372.242,219.921 375.5,218.5 Z"/></g>
<g><path style="opacity:1" fill="#3b529d" d="M 390.5,227.5 C 400.198,230.218 403.698,236.552 401,246.5C 399.479,255.247 397.646,263.914 395.5,272.5C 393.73,277.402 391.896,282.402 390,287.5C 389.667,292.833 389.333,298.167 389,303.5C 388.167,302.667 387.333,301.833 386.5,301C 381.489,300.5 376.489,300.667 371.5,301.5C 361.241,299.311 350.908,297.977 340.5,297.5C 341.694,296.728 342.694,295.728 343.5,294.5C 344.552,294.649 345.552,294.483 346.5,294C 352.264,285.876 356.598,277.043 359.5,267.5C 363.463,268.44 367.463,268.607 371.5,268C 374.056,266.945 375.723,265.112 376.5,262.5C 378.167,262.5 379.833,262.5 381.5,262.5C 381.99,254.089 382.99,245.756 384.5,237.5C 386.5,234.167 388.5,230.833 390.5,227.5 Z"/></g>
<g><path style="opacity:1" fill="#3c529b" d="M 139.5,229.5 C 140.856,235.3 141.856,241.3 142.5,247.5C 142.415,249.333 141.748,250.666 140.5,251.5C 138.035,251.233 135.701,250.566 133.5,249.5C 133.5,248.833 133.5,248.167 133.5,247.5C 134.15,245.565 134.483,243.565 134.5,241.5C 135.999,239.836 136.999,237.836 137.5,235.5C 136.108,232.87 136.775,230.87 139.5,229.5 Z"/></g>
<g><path style="opacity:1" fill="#1f5480" d="M 277.5,229.5 C 286.833,233.5 296.167,237.5 305.5,241.5C 302.227,244.247 298.727,246.914 295,249.5C 294.311,248.643 293.478,247.977 292.5,247.5C 292.12,249.021 291.954,250.687 292,252.5C 291,253.5 290,254.5 289,255.5C 289.218,253.413 289.051,251.413 288.5,249.5C 285.691,253.477 282.691,257.31 279.5,261C 265.434,269.948 253.434,280.448 243.5,292.5C 242.001,293.494 240.334,293.494 238.5,292.5C 235.833,290.5 233.5,288.167 231.5,285.5C 230.972,284.153 230.805,282.819 231,281.5C 235.507,276.468 240.007,271.468 244.5,266.5C 250.509,260.49 256.175,254.157 261.5,247.5C 267.198,241.803 272.532,235.803 277.5,229.5 Z"/></g>
<g><path style="opacity:1" fill="#f0ae98" d="M 134.5,241.5 C 134.483,243.565 134.15,245.565 133.5,247.5C 128.661,248.16 123.828,248.493 119,248.5C 115.772,247.356 114.272,245.022 114.5,241.5C 114.19,236.787 116.023,233.12 120,230.5C 122.071,233.416 123.405,233.082 124,229.5C 126.744,232.125 129.911,234.125 133.5,235.5C 134.386,236.325 134.719,237.325 134.5,238.5C 133.022,238.238 131.689,238.571 130.5,239.5C 131.949,240.172 133.282,240.839 134.5,241.5 Z"/></g>
<g><path style="opacity:1" fill="#602e17" d="M 120.5,237.5 C 122.75,237.181 124.75,237.681 126.5,239C 125.5,239.167 124.5,239.333 123.5,239.5C 121.97,239.36 120.97,238.693 120.5,237.5 Z"/></g>
<g><path style="opacity:1" fill="#e6a08a" d="M 113.5,241.5 C 114.234,245.44 112.901,246.773 109.5,245.5C 108.351,242.959 108.351,240.459 109.5,238C 112.49,237.153 113.824,238.32 113.5,241.5 Z"/></g>
<g><path style="opacity:1" fill="#efb39f" d="M 325.5,230.5 C 327.2,231.016 328.533,232.016 329.5,233.5C 327.23,235.602 325.563,238.102 324.5,241C 325.799,242.326 327.132,243.66 328.5,245C 344.662,251.287 360.662,257.12 376.5,262.5C 375.723,265.112 374.056,266.945 371.5,268C 367.463,268.607 363.463,268.44 359.5,267.5C 351.045,263.104 342.711,258.438 334.5,253.5C 334.611,252.883 334.944,252.383 335.5,252C 330.81,250.215 326.31,248.049 322,245.5C 322.079,240.187 323.246,235.187 325.5,230.5 Z"/></g>
<g><path style="opacity:1" fill="#1f5581" d="M 312.5,244.5 C 316.12,246.369 319.787,248.036 323.5,249.5C 322.475,249.897 322.308,250.563 323,251.5C 327.078,256.249 331.745,260.249 337,263.5C 337.333,263.167 337.667,262.833 338,262.5C 340.043,264.208 341.71,266.208 343,268.5C 342.511,277.428 342.677,286.095 343.5,294.5C 342.694,295.728 341.694,296.728 340.5,297.5C 337.993,298.892 335.327,299.892 332.5,300.5C 321.06,297.213 314.227,289.547 312,277.5C 311.117,274.898 309.617,272.731 307.5,271C 312.592,269.33 312.592,268.497 307.5,268.5C 307.762,267.022 307.429,265.689 306.5,264.5C 305.729,266.862 304.895,269.196 304,271.5C 296.192,280.477 287.026,287.644 276.5,293C 273.312,295.432 270.312,298.099 267.5,301C 267.728,301.399 268.062,301.565 268.5,301.5C 268.5,301.833 268.5,302.167 268.5,302.5C 266.102,302.259 264.102,302.926 262.5,304.5C 259.995,306.863 257.495,309.196 255,311.5C 252.915,310.876 251.082,309.876 249.5,308.5C 248.18,305.86 246.847,303.193 245.5,300.5C 245.167,299.833 244.833,299.167 244.5,298.5C 252.84,290.16 261.507,282.16 270.5,274.5C 270.435,274.938 270.601,275.272 271,275.5C 282.155,266.344 292.655,256.511 302.5,246C 305.726,244.801 309.059,244.301 312.5,244.5 Z"/></g>
<g><path style="opacity:1" fill="#74361e" d="M 113.5,241.5 C 113.833,241.5 114.167,241.5 114.5,241.5C 114.272,245.022 115.772,247.356 119,248.5C 123.828,248.493 128.661,248.16 133.5,247.5C 133.5,248.167 133.5,248.833 133.5,249.5C 132.571,252.675 131.738,256.009 131,259.5C 129.989,260.337 128.822,260.67 127.5,260.5C 122.036,260.238 117.369,258.238 113.5,254.5C 112.87,252.25 111.87,250.25 110.5,248.5C 109.89,247.609 109.557,246.609 109.5,245.5C 112.901,246.773 114.234,245.44 113.5,241.5 Z"/></g>
<g><path style="opacity:1" fill="#0b82c0" d="M 323.5,249.5 C 327.167,250.833 330.833,252.167 334.5,253.5C 342.711,258.438 351.045,263.104 359.5,267.5C 356.598,277.043 352.264,285.876 346.5,294C 345.552,294.483 344.552,294.649 343.5,294.5C 342.677,286.095 342.511,277.428 343,268.5C 341.71,266.208 340.043,264.208 338,262.5C 337.667,262.833 337.333,263.167 337,263.5C 331.745,260.249 327.078,256.249 323,251.5C 322.308,250.563 322.475,249.897 323.5,249.5 Z"/></g>
<g><path style="opacity:1" fill="#09b0c3" d="M 110.5,248.5 C 111.87,250.25 112.87,252.25 113.5,254.5C 113.5,257.5 113.5,260.5 113.5,263.5C 106.741,265.698 100.074,268.198 93.5,271C 92.2125,272.41 91.0458,273.91 90,275.5C 86.5038,286.656 83.0038,297.822 79.5,309C 79.9054,309.945 80.572,310.612 81.5,311C 85.4862,311.499 89.4862,311.666 93.5,311.5C 90.7131,312.477 87.7131,312.81 84.5,312.5C 84.7426,318.743 87.7426,323.076 93.5,325.5C 91.6787,334.282 91.1787,343.282 92,352.5C 92.7096,353.973 93.8762,354.64 95.5,354.5C 96.2778,365.575 102.278,371.241 113.5,371.5C 113.205,369.265 113.539,367.265 114.5,365.5C 114.393,375.13 119.06,378.296 128.5,375C 134.624,374.221 140.291,372.388 145.5,369.5C 145.833,369.5 146.167,369.5 146.5,369.5C 146.56,370.043 146.893,370.376 147.5,370.5C 150.593,368.691 153.926,367.691 157.5,367.5C 162.141,368.231 166.807,368.564 171.5,368.5C 179.947,368.801 188.28,367.968 196.5,366C 200.012,362.264 200.345,358.264 197.5,354C 192.738,353.523 188.071,354.023 183.5,355.5C 188.635,352.428 193.635,349.095 198.5,345.5C 204.833,347.167 208.833,351.167 210.5,357.5C 210.816,360.978 210.316,364.312 209,367.5C 204.877,371.464 200.377,374.797 195.5,377.5C 193.708,377.366 192.042,377.699 190.5,378.5C 189.391,378.557 188.391,378.89 187.5,379.5C 181.337,380.926 175.337,382.592 169.5,384.5C 167.901,384.232 166.568,384.566 165.5,385.5C 164.5,385.5 163.5,385.5 162.5,385.5C 146.928,387.857 131.261,388.857 115.5,388.5C 114.5,388.5 113.5,388.5 112.5,388.5C 111.167,388.5 109.833,388.5 108.5,388.5C 102.234,387.016 95.901,385.349 89.5,383.5C 88.791,382.596 87.791,382.263 86.5,382.5C 85.4863,381.326 84.153,380.66 82.5,380.5C 80.1215,378.122 77.4549,376.122 74.5,374.5C 67.5322,364.864 67.8656,355.531 75.5,346.5C 71.4899,337.803 68.4899,328.803 66.5,319.5C 67.1239,319.083 67.4573,318.416 67.5,317.5C 65.7385,309.577 65.2385,301.577 66,293.5C 66.2128,275.213 74.3795,262.047 90.5,254C 97.2962,252.137 103.963,250.304 110.5,248.5 Z"/></g>
<g><path style="opacity:1" fill="#05aec1" d="M 133.5,249.5 C 135.701,250.566 138.035,251.233 140.5,251.5C 150.058,255.888 156.391,263.221 159.5,273.5C 161.351,282.695 162.017,292.029 161.5,301.5C 158.167,301.5 154.833,301.5 151.5,301.5C 151.5,300.833 151.167,300.5 150.5,300.5C 151.53,299.448 152.197,298.114 152.5,296.5C 150.9,288.663 148.733,280.997 146,273.5C 140.384,268.941 134.217,265.274 127.5,262.5C 127.5,261.833 127.5,261.167 127.5,260.5C 128.822,260.67 129.989,260.337 131,259.5C 131.738,256.009 132.571,252.675 133.5,249.5 Z"/></g>
<g><path style="opacity:1" fill="#184267" d="M 305.5,241.5 C 308.206,241.887 310.539,242.887 312.5,244.5C 309.059,244.301 305.726,244.801 302.5,246C 292.655,256.511 282.155,266.344 271,275.5C 270.601,275.272 270.435,274.938 270.5,274.5C 275.163,269.004 280.33,264.004 286,259.5C 286.667,258.833 286.667,258.167 286,257.5C 279.45,263.051 272.617,268.217 265.5,273C 260.466,277.699 255.8,282.699 251.5,288C 249.183,290.157 246.516,291.657 243.5,292.5C 253.434,280.448 265.434,269.948 279.5,261C 282.691,257.31 285.691,253.477 288.5,249.5C 289.051,251.413 289.218,253.413 289,255.5C 290,254.5 291,253.5 292,252.5C 291.954,250.687 292.12,249.021 292.5,247.5C 293.478,247.977 294.311,248.643 295,249.5C 298.727,246.914 302.227,244.247 305.5,241.5 Z"/></g>
<g><path style="opacity:1" fill="#eeae9a" d="M 113.5,254.5 C 117.369,258.238 122.036,260.238 127.5,260.5C 127.5,261.167 127.5,261.833 127.5,262.5C 123.041,264.753 118.374,265.086 113.5,263.5C 113.5,260.5 113.5,257.5 113.5,254.5 Z"/></g>
<g><path style="opacity:1" fill="#0778b7" d="M 127.5,262.5 C 134.217,265.274 140.384,268.941 146,273.5C 148.733,280.997 150.9,288.663 152.5,296.5C 152.197,298.114 151.53,299.448 150.5,300.5C 149.833,300.5 149.5,300.833 149.5,301.5C 147.5,301.833 145.5,302.167 143.5,302.5C 144.602,306.752 144.602,310.752 143.5,314.5C 144.264,317.018 145.264,319.351 146.5,321.5C 146.768,323.099 146.434,324.432 145.5,325.5C 129.581,325.883 114.581,322.383 100.5,315C 99.1667,313.667 99.1667,312.333 100.5,311C 98.2028,310.982 95.8695,311.149 93.5,311.5C 89.4862,311.666 85.4862,311.499 81.5,311C 80.572,310.612 79.9054,309.945 79.5,309C 83.0038,297.822 86.5038,286.656 90,275.5C 91.0458,273.91 92.2125,272.41 93.5,271C 100.074,268.198 106.741,265.698 113.5,263.5C 118.374,265.086 123.041,264.753 127.5,262.5 Z"/></g>
<g><path style="opacity:1" fill="#015ca9" d="M 99.5,269.5 C 104.664,272.152 106.997,276.485 106.5,282.5C 105.946,289.383 104.446,296.049 102,302.5C 102.038,296.068 102.871,289.734 104.5,283.5C 104.458,280.741 103.958,278.075 103,275.5C 101.558,273.609 100.391,271.609 99.5,269.5 Z"/></g>
<g><path style="opacity:1" fill="#19466d" d="M 332.5,300.5 C 328.564,300.267 324.897,299.267 321.5,297.5C 316.623,295.061 311.623,292.561 306.5,290C 304.005,286.173 302.172,282.006 301,277.5C 290.404,285.875 279.571,293.875 268.5,301.5C 268.062,301.565 267.728,301.399 267.5,301C 270.312,298.099 273.312,295.432 276.5,293C 287.026,287.644 296.192,280.477 304,271.5C 304.895,269.196 305.729,266.862 306.5,264.5C 307.429,265.689 307.762,267.022 307.5,268.5C 312.592,268.497 312.592,269.33 307.5,271C 309.617,272.731 311.117,274.898 312,277.5C 314.227,289.547 321.06,297.213 332.5,300.5 Z"/></g>
<g><path style="opacity:1" fill="#4b75b9" d="M 159.5,273.5 C 165.167,273.5 170.833,273.5 176.5,273.5C 176.169,281.86 176.502,290.193 177.5,298.5C 187.628,297.181 197.628,297.181 207.5,298.5C 205.585,298.216 203.919,298.549 202.5,299.5C 201.596,300.209 201.263,301.209 201.5,302.5C 204.152,302.41 206.485,303.076 208.5,304.5C 204.833,304.5 201.167,304.5 197.5,304.5C 197.5,303.5 197.5,302.5 197.5,301.5C 185.5,301.5 173.5,301.5 161.5,301.5C 162.017,292.029 161.351,282.695 159.5,273.5 Z"/></g>
<g><path style="opacity:1" fill="#4a74b9" d="M 395.5,272.5 C 401.645,273.49 407.978,273.823 414.5,273.5C 414.5,299.833 414.5,326.167 414.5,352.5C 414.649,353.552 414.483,354.552 414,355.5C 412.333,356.733 410.833,358.067 409.5,359.5C 406.512,357.727 403.179,357.06 399.5,357.5C 385.167,357.5 370.833,357.5 356.5,357.5C 353.5,357.5 350.5,357.5 347.5,357.5C 301.833,357.5 256.167,357.5 210.5,357.5C 208.833,351.167 204.833,347.167 198.5,345.5C 199.795,344.512 201.128,343.512 202.5,342.5C 264.833,342.5 327.167,342.5 389.5,342.5C 389.5,341.5 389.5,340.5 389.5,339.5C 389.5,327.833 389.5,316.167 389.5,304.5C 347.167,304.5 304.833,304.5 262.5,304.5C 264.102,302.926 266.102,302.259 268.5,302.5C 269.117,302.611 269.617,302.944 270,303.5C 273.848,300.198 278.348,298.698 283.5,299C 296.143,297.89 308.81,297.39 321.5,297.5C 324.897,299.267 328.564,300.267 332.5,300.5C 335.327,299.892 337.993,298.892 340.5,297.5C 350.908,297.977 361.241,299.311 371.5,301.5C 376.489,300.667 381.489,300.5 386.5,301C 387.333,301.833 388.167,302.667 389,303.5C 389.333,298.167 389.667,292.833 390,287.5C 391.896,282.402 393.73,277.402 395.5,272.5 Z"/></g>
<g><path style="opacity:1" fill="#445aa3" d="M 270.5,274.5 C 261.507,282.16 252.84,290.16 244.5,298.5C 240.629,298.815 236.962,298.482 233.5,297.5C 235.5,296.167 237.167,294.5 238.5,292.5C 240.334,293.494 242.001,293.494 243.5,292.5C 246.516,291.657 249.183,290.157 251.5,288C 255.8,282.699 260.466,277.699 265.5,273C 272.617,268.217 279.45,263.051 286,257.5C 286.667,258.167 286.667,258.833 286,259.5C 280.33,264.004 275.163,269.004 270.5,274.5 Z"/></g>
<g><path style="opacity:1" fill="#5165ad" d="M 321.5,297.5 C 308.81,297.39 296.143,297.89 283.5,299C 278.348,298.698 273.848,300.198 270,303.5C 269.617,302.944 269.117,302.611 268.5,302.5C 268.5,302.167 268.5,301.833 268.5,301.5C 279.571,293.875 290.404,285.875 301,277.5C 302.172,282.006 304.005,286.173 306.5,290C 311.623,292.561 316.623,295.061 321.5,297.5 Z"/></g>
<g><path style="opacity:1" fill="#f1b29f" d="M 231.5,285.5 C 233.5,288.167 235.833,290.5 238.5,292.5C 237.167,294.5 235.5,296.167 233.5,297.5C 232.167,298.5 230.833,299.5 229.5,300.5C 227.444,299.378 226.111,297.711 225.5,295.5C 227.5,292.167 229.5,288.833 231.5,285.5 Z"/></g>
<g><path style="opacity:1" fill="#de4746" d="M 225.5,295.5 C 226.111,297.711 227.444,299.378 229.5,300.5C 228.85,302.435 228.517,304.435 228.5,306.5C 228.833,306.5 229.167,306.5 229.5,306.5C 230.167,310.5 230.833,310.5 231.5,306.5C 231.833,306.5 232.167,306.5 232.5,306.5C 233.75,311.64 234.416,311.64 234.5,306.5C 236.861,306.326 239.194,305.993 241.5,305.5C 241.253,307.858 241.919,309.858 243.5,311.5C 243.287,314.475 242.287,317.142 240.5,319.5C 239.261,319.058 238.261,318.391 237.5,317.5C 233.742,315.065 229.742,312.898 225.5,311C 224.207,310.51 222.873,310.343 221.5,310.5C 217.96,310.806 216.626,309.473 217.5,306.5C 216.675,305.614 215.675,305.281 214.5,305.5C 210.537,303.502 206.537,301.502 202.5,299.5C 203.919,298.549 205.585,298.216 207.5,298.5C 208.5,298.5 209.5,298.5 210.5,298.5C 211.48,302.326 212.313,302.326 213,298.5C 213.535,300.271 214.369,300.604 215.5,299.5C 215.137,298.817 214.804,298.15 214.5,297.5C 215.167,297.5 215.833,297.5 216.5,297.5C 217.596,301.289 218.263,301.289 218.5,297.5C 220.701,296.434 223.035,295.767 225.5,295.5 Z"/></g>
<g><path style="opacity:1" fill="#f8d4d2" d="M 216.5,297.5 C 217.167,297.5 217.833,297.5 218.5,297.5C 218.263,301.289 217.596,301.289 216.5,297.5 Z"/></g>
<g><path style="opacity:1" fill="#5977b8" d="M 233.5,297.5 C 236.962,298.482 240.629,298.815 244.5,298.5C 244.833,299.167 245.167,299.833 245.5,300.5C 243.457,301.579 242.124,303.246 241.5,305.5C 239.194,305.993 236.861,306.326 234.5,306.5C 233.833,306.5 233.167,306.5 232.5,306.5C 232.167,306.5 231.833,306.5 231.5,306.5C 230.833,306.5 230.167,306.5 229.5,306.5C 229.167,306.5 228.833,306.5 228.5,306.5C 228.517,304.435 228.85,302.435 229.5,300.5C 230.833,299.5 232.167,298.5 233.5,297.5 Z"/></g>
<g><path style="opacity:1" fill="#e5abaf" d="M 214.5,297.5 C 214.804,298.15 215.137,298.817 215.5,299.5C 214.369,300.604 213.535,300.271 213,298.5C 212.313,302.326 211.48,302.326 210.5,298.5C 211.568,297.566 212.901,297.232 214.5,297.5 Z"/></g>
<g><path style="opacity:1" fill="#fdfdfd" d="M 151.5,301.5 C 154.833,301.5 158.167,301.5 161.5,301.5C 173.5,301.5 185.5,301.5 197.5,301.5C 197.5,302.5 197.5,303.5 197.5,304.5C 196.513,309.32 195.847,314.32 195.5,319.5C 194.539,321.265 194.205,323.265 194.5,325.5C 192.901,325.232 191.568,325.566 190.5,326.5C 185.271,327.781 180.604,330.115 176.5,333.5C 166.833,333.5 157.167,333.5 147.5,333.5C 147.751,322.56 149.084,311.893 151.5,301.5 Z"/></g>
<g><path style="opacity:1" fill="#903d41" d="M 202.5,299.5 C 206.537,301.502 210.537,303.502 214.5,305.5C 212.565,304.85 210.565,304.517 208.5,304.5C 206.485,303.076 204.152,302.41 201.5,302.5C 201.263,301.209 201.596,300.209 202.5,299.5 Z"/></g>
<g><path style="opacity:1" fill="#edb09f" d="M 245.5,300.5 C 246.847,303.193 248.18,305.86 249.5,308.5C 247.483,309.529 245.483,310.529 243.5,311.5C 241.919,309.858 241.253,307.858 241.5,305.5C 242.124,303.246 243.457,301.579 245.5,300.5 Z"/></g>
<g><path style="opacity:1" fill="#efb6a2" d="M 149.5,301.5 C 148.402,306.092 147.735,310.759 147.5,315.5C 146.167,315.167 144.833,314.833 143.5,314.5C 144.602,310.752 144.602,306.752 143.5,302.5C 145.5,302.167 147.5,301.833 149.5,301.5 Z"/></g>
<g><path style="opacity:1" fill="#5265ae" d="M 197.5,304.5 C 201.167,304.5 204.833,304.5 208.5,304.5C 210.565,304.517 212.565,304.85 214.5,305.5C 215.675,305.281 216.675,305.614 217.5,306.5C 216.626,309.473 217.96,310.806 221.5,310.5C 226.531,313.345 231.864,315.678 237.5,317.5C 238.261,318.391 239.261,319.058 240.5,319.5C 242.287,317.142 243.287,314.475 243.5,311.5C 245.483,310.529 247.483,309.529 249.5,308.5C 251.082,309.876 252.915,310.876 255,311.5C 257.495,309.196 259.995,306.863 262.5,304.5C 304.833,304.5 347.167,304.5 389.5,304.5C 389.5,316.167 389.5,327.833 389.5,339.5C 350.499,339.667 311.499,339.5 272.5,339C 272,338.5 271.5,338 271,337.5C 249.064,339.483 226.898,340.15 204.5,339.5C 207.38,335.396 207.047,331.563 203.5,328C 199.3,326.633 194.967,326.133 190.5,326.5C 191.568,325.566 192.901,325.232 194.5,325.5C 195.376,325.631 196.043,325.298 196.5,324.5C 195.691,322.929 195.357,321.262 195.5,319.5C 195.847,314.32 196.513,309.32 197.5,304.5 Z"/></g>
<g><path style="opacity:1" fill="#efb8b8" d="M 229.5,306.5 C 230.167,306.5 230.833,306.5 231.5,306.5C 230.833,310.5 230.167,310.5 229.5,306.5 Z"/></g>
<g><path style="opacity:1" fill="#f3c0bf" d="M 228.5,306.5 C 228.719,307.675 228.386,308.675 227.5,309.5C 226.202,307.948 226.535,306.948 228.5,306.5 Z"/></g>
<g><path style="opacity:1" fill="#f0d2d4" d="M 232.5,306.5 C 233.167,306.5 233.833,306.5 234.5,306.5C 234.416,311.64 233.75,311.64 232.5,306.5 Z"/></g>
<g><path style="opacity:1" fill="#f2b4a0" d="M 145.5,325.5 C 146.031,328.888 144.697,330.888 141.5,331.5C 137.956,331.115 134.623,330.115 131.5,328.5C 125.801,324.601 120.135,324.601 114.5,328.5C 107.456,327.779 100.456,326.779 93.5,325.5C 87.7426,323.076 84.7426,318.743 84.5,312.5C 87.7131,312.81 90.7131,312.477 93.5,311.5C 95.8695,311.149 98.2028,310.982 100.5,311C 99.1667,312.333 99.1667,313.667 100.5,315C 114.581,322.383 129.581,325.883 145.5,325.5 Z"/></g>
<g><path style="opacity:1" fill="#9b3736" d="M 221.5,310.5 C 222.873,310.343 224.207,310.51 225.5,311C 229.742,312.898 233.742,315.065 237.5,317.5C 231.864,315.678 226.531,313.345 221.5,310.5 Z"/></g>
<g><path style="opacity:1" fill="#26aec3" d="M 143.5,314.5 C 144.833,314.833 146.167,315.167 147.5,315.5C 147.483,317.565 147.15,319.565 146.5,321.5C 145.264,319.351 144.264,317.018 143.5,314.5 Z"/></g>
<g><path style="opacity:1" fill="#d4d4d6" d="M 150.5,300.5 C 151.167,300.5 151.5,300.833 151.5,301.5C 149.084,311.893 147.751,322.56 147.5,333.5C 157.167,333.5 166.833,333.5 176.5,333.5C 165.012,334.495 153.345,334.828 141.5,334.5C 137.582,333.475 137.582,332.475 141.5,331.5C 144.697,330.888 146.031,328.888 145.5,325.5C 146.434,324.432 146.768,323.099 146.5,321.5C 147.15,319.565 147.483,317.565 147.5,315.5C 147.735,310.759 148.402,306.092 149.5,301.5C 149.5,300.833 149.833,300.5 150.5,300.5 Z"/></g>
<g><path style="opacity:1" fill="#c0a6b4" d="M 195.5,319.5 C 195.357,321.262 195.691,322.929 196.5,324.5C 196.043,325.298 195.376,325.631 194.5,325.5C 194.205,323.265 194.539,321.265 195.5,319.5 Z"/></g>
<g><path style="opacity:1" fill="#087ab7" d="M 93.5,325.5 C 100.456,326.779 107.456,327.779 114.5,328.5C 111.502,331.667 108.669,335 106,338.5C 104.877,335.044 105.71,332.21 108.5,330C 106.613,329.837 105.113,330.671 104,332.5C 102.245,340.267 99.4118,347.6 95.5,354.5C 93.8762,354.64 92.7096,353.973 92,352.5C 91.1787,343.282 91.6787,334.282 93.5,325.5 Z"/></g>
<g><path style="opacity:1" fill="#014d9c" d="M 131.5,328.5 C 131.414,329.496 131.748,330.329 132.5,331C 140.788,336.953 148.788,343.286 156.5,350C 151.565,352.606 146.898,355.606 142.5,359C 149.468,356.675 155.801,353.008 161.5,348C 159.402,348.984 157.402,348.651 155.5,347C 150.639,342.968 145.972,338.801 141.5,334.5C 153.345,334.828 165.012,334.495 176.5,333.5C 180.604,330.115 185.271,327.781 190.5,326.5C 194.967,326.133 199.3,326.633 203.5,328C 207.047,331.563 207.38,335.396 204.5,339.5C 203.833,340.5 203.167,341.5 202.5,342.5C 201.128,343.512 199.795,344.512 198.5,345.5C 193.635,349.095 188.635,352.428 183.5,355.5C 179.824,356.754 176.324,358.421 173,360.5C 172.605,363.207 172.105,365.873 171.5,368.5C 166.807,368.564 162.141,368.231 157.5,367.5C 153.926,367.691 150.593,368.691 147.5,370.5C 146.893,370.376 146.56,370.043 146.5,369.5C 148.453,365.417 147.12,362.75 142.5,361.5C 133.844,362.087 125.178,362.587 116.5,363C 115.619,363.708 114.953,364.542 114.5,365.5C 113.539,367.265 113.205,369.265 113.5,371.5C 102.278,371.241 96.2778,365.575 95.5,354.5C 99.4118,347.6 102.245,340.267 104,332.5C 105.113,330.671 106.613,329.837 108.5,330C 105.71,332.21 104.877,335.044 106,338.5C 108.669,335 111.502,331.667 114.5,328.5C 120.135,324.601 125.801,324.601 131.5,328.5 Z"/></g>
<g><path style="opacity:1" fill="#364c90" d="M 389.5,339.5 C 389.5,340.5 389.5,341.5 389.5,342.5C 327.167,342.5 264.833,342.5 202.5,342.5C 203.167,341.5 203.833,340.5 204.5,339.5C 226.898,340.15 249.064,339.483 271,337.5C 271.5,338 272,338.5 272.5,339C 311.499,339.5 350.499,339.667 389.5,339.5 Z"/></g>
<g><path style="opacity:1" fill="#0d397a" d="M 131.5,328.5 C 134.623,330.115 137.956,331.115 141.5,331.5C 137.582,332.475 137.582,333.475 141.5,334.5C 145.972,338.801 150.639,342.968 155.5,347C 157.402,348.651 159.402,348.984 161.5,348C 155.801,353.008 149.468,356.675 142.5,359C 146.898,355.606 151.565,352.606 156.5,350C 148.788,343.286 140.788,336.953 132.5,331C 131.748,330.329 131.414,329.496 131.5,328.5 Z"/></g>
<g><path style="opacity:1" fill="#89cee4" d="M 171.5,368.5 C 172.105,365.873 172.605,363.207 173,360.5C 176.324,358.421 179.824,356.754 183.5,355.5C 188.071,354.023 192.738,353.523 197.5,354C 200.345,358.264 200.012,362.264 196.5,366C 188.28,367.968 179.947,368.801 171.5,368.5 Z"/></g>
<g><path style="opacity:1" fill="#705a62" d="M 347.5,357.5 C 350.5,357.5 353.5,357.5 356.5,357.5C 356.5,357.833 356.5,358.167 356.5,358.5C 353.615,358.194 350.948,358.527 348.5,359.5C 347.662,359.158 347.328,358.492 347.5,357.5 Z"/></g>
<g><path style="opacity:1" fill="#41aae1" d="M 210.5,357.5 C 256.167,357.5 301.833,357.5 347.5,357.5C 347.328,358.492 347.662,359.158 348.5,359.5C 351.838,364.349 355.004,369.349 358,374.5C 359.814,375.76 361.647,375.76 363.5,374.5C 360.937,370.044 358.937,365.377 357.5,360.5C 373.251,361.427 388.917,363.094 404.5,365.5C 406.69,368.688 409.024,371.855 411.5,375C 412.793,375.49 414.127,375.657 415.5,375.5C 414.787,372.406 413.787,369.406 412.5,366.5C 422.87,368.427 432.87,371.594 442.5,376C 447.403,379.272 447.737,382.939 443.5,387C 431.01,392.373 418.01,396.04 404.5,398C 356.387,404.36 308.054,407.527 259.5,407.5C 241.33,406.73 223.33,406.73 205.5,407.5C 201.595,397.784 198.261,387.784 195.5,377.5C 200.377,374.797 204.877,371.464 209,367.5C 210.316,364.312 210.816,360.978 210.5,357.5 Z"/></g>
<g><path style="opacity:1" fill="#844329" d="M 356.5,358.5 C 356.328,359.492 356.662,360.158 357.5,360.5C 358.937,365.377 360.937,370.044 363.5,374.5C 361.647,375.76 359.814,375.76 358,374.5C 355.004,369.349 351.838,364.349 348.5,359.5C 350.948,358.527 353.615,358.194 356.5,358.5 Z"/></g>
<g><path style="opacity:1" fill="#6fc5ef" d="M 356.5,357.5 C 370.833,357.5 385.167,357.5 399.5,357.5C 401.167,360.167 402.833,362.833 404.5,365.5C 388.917,363.094 373.251,361.427 357.5,360.5C 356.662,360.158 356.328,359.492 356.5,358.5C 356.5,358.167 356.5,357.833 356.5,357.5 Z"/></g>
<g><path style="opacity:1" fill="#85472f" d="M 399.5,357.5 C 403.179,357.06 406.512,357.727 409.5,359.5C 410.773,361.713 411.773,364.046 412.5,366.5C 413.787,369.406 414.787,372.406 415.5,375.5C 414.127,375.657 412.793,375.49 411.5,375C 409.024,371.855 406.69,368.688 404.5,365.5C 402.833,362.833 401.167,360.167 399.5,357.5 Z"/></g>
<g><path style="opacity:1" fill="#8acde3" d="M 142.5,361.5 C 143.751,364.132 144.751,366.799 145.5,369.5C 140.291,372.388 134.624,374.221 128.5,375C 119.06,378.296 114.393,375.13 114.5,365.5C 114.953,364.542 115.619,363.708 116.5,363C 125.178,362.587 133.844,362.087 142.5,361.5 Z"/></g>
<g><path style="opacity:1" fill="#e3a798" d="M 142.5,361.5 C 147.12,362.75 148.453,365.417 146.5,369.5C 146.167,369.5 145.833,369.5 145.5,369.5C 144.751,366.799 143.751,364.132 142.5,361.5 Z"/></g>
<g><path style="opacity:1" fill="#51afe1" d="M 74.5,374.5 C 77.4549,376.122 80.1215,378.122 82.5,380.5C 81.4878,383.257 80.4878,385.924 79.5,388.5C 72.3588,386.247 71.0254,382.247 75.5,376.5C 75.1373,375.817 74.8039,375.15 74.5,374.5 Z"/></g>
<g><path style="opacity:1" fill="#8e492e" d="M 195.5,377.5 C 198.261,387.784 201.595,397.784 205.5,407.5C 206.167,410.167 206.833,412.833 207.5,415.5C 209.479,421.418 211.146,427.418 212.5,433.5C 210.901,433.768 209.568,433.434 208.5,432.5C 202.7,414.433 196.7,396.433 190.5,378.5C 192.042,377.699 193.708,377.366 195.5,377.5 Z"/></g>
<g><path style="opacity:1" fill="#69351c" d="M 190.5,378.5 C 196.7,396.433 202.7,414.433 208.5,432.5C 205.577,426.985 202.91,421.318 200.5,415.5C 199.696,412.421 198.696,409.421 197.5,406.5C 194.167,397.5 190.833,388.5 187.5,379.5C 188.391,378.89 189.391,378.557 190.5,378.5 Z"/></g>
<g><path style="opacity:1" fill="#41a8dd" d="M 187.5,379.5 C 190.833,388.5 194.167,397.5 197.5,406.5C 190.635,404.92 183.635,404.253 176.5,404.5C 173.673,398.079 171.339,391.412 169.5,384.5C 175.337,382.592 181.337,380.926 187.5,379.5 Z"/></g>
<g><path style="opacity:1" fill="#904e35" d="M 82.5,380.5 C 84.153,380.66 85.4863,381.326 86.5,382.5C 81.4354,396.694 76.7687,411.027 72.5,425.5C 71.4324,426.434 70.099,426.768 68.5,426.5C 68.6997,423.37 69.3664,420.37 70.5,417.5C 73.3074,407.746 76.3074,398.079 79.5,388.5C 80.4878,385.924 81.4878,383.257 82.5,380.5 Z"/></g>
<g><path style="opacity:1" fill="#41a8de" d="M 89.5,383.5 C 95.901,385.349 102.234,387.016 108.5,388.5C 107.341,390.855 106.341,393.188 105.5,395.5C 99.1469,394.274 92.8136,392.941 86.5,391.5C 87.1084,388.673 88.1084,386.007 89.5,383.5 Z"/></g>
<g><path style="opacity:1" fill="#8d492f" d="M 169.5,384.5 C 171.339,391.412 173.673,398.079 176.5,404.5C 176.928,407.785 177.928,410.785 179.5,413.5C 180.656,417.793 181.656,422.126 182.5,426.5C 180.901,426.768 179.568,426.434 178.5,425.5C 174.474,412.06 170.14,398.727 165.5,385.5C 166.568,384.566 167.901,384.232 169.5,384.5 Z"/></g>
<g><path style="opacity:1" fill="#40a9e0" d="M 162.5,385.5 C 164.702,391.438 166.702,397.438 168.5,403.5C 150.048,402.435 131.714,400.435 113.5,397.5C 114.578,394.598 115.244,391.598 115.5,388.5C 131.261,388.857 146.928,387.857 162.5,385.5 Z"/></g>
<g><path style="opacity:1" fill="#8e482e" d="M 108.5,388.5 C 109.833,388.5 111.167,388.5 112.5,388.5C 107.141,405.94 101.474,423.273 95.5,440.5C 94.0222,440.762 92.6888,440.429 91.5,439.5C 94.5784,431.266 97.2451,422.933 99.5,414.5C 102.267,408.441 104.267,402.108 105.5,395.5C 106.341,393.188 107.341,390.855 108.5,388.5 Z"/></g>
<g><path style="opacity:1" fill="#6a351c" d="M 86.5,382.5 C 87.791,382.263 88.791,382.596 89.5,383.5C 88.1084,386.007 87.1084,388.673 86.5,391.5C 82.9469,399.276 79.9469,407.276 77.5,415.5C 76.2172,419.008 74.5505,422.342 72.5,425.5C 76.7687,411.027 81.4354,396.694 86.5,382.5 Z"/></g>
<g><path style="opacity:1" fill="#72c8ef" d="M 86.5,391.5 C 92.8136,392.941 99.1469,394.274 105.5,395.5C 104.267,402.108 102.267,408.441 99.5,414.5C 93.3301,415.067 87.1635,415.734 81,416.5C 79.6153,416.486 78.4486,416.152 77.5,415.5C 79.9469,407.276 82.9469,399.276 86.5,391.5 Z"/></g>
<g><path style="opacity:1" fill="#72caf2" d="M 113.5,397.5 C 131.714,400.435 150.048,402.435 168.5,403.5C 170.065,405.509 171.065,407.843 171.5,410.5C 150.505,412.227 129.172,413.227 107.5,413.5C 108.932,407.859 110.932,402.525 113.5,397.5 Z"/></g>
<g><path style="opacity:1" fill="#6a351c" d="M 162.5,385.5 C 163.5,385.5 164.5,385.5 165.5,385.5C 170.14,398.727 174.474,412.06 178.5,425.5C 175.91,420.651 173.576,415.651 171.5,410.5C 171.065,407.843 170.065,405.509 168.5,403.5C 166.702,397.438 164.702,391.438 162.5,385.5 Z"/></g>
<g><path style="opacity:1" fill="#72c9f1" d="M 176.5,404.5 C 183.635,404.253 190.635,404.92 197.5,406.5C 198.696,409.421 199.696,412.421 200.5,415.5C 193.515,414.713 186.515,414.047 179.5,413.5C 177.928,410.785 176.928,407.785 176.5,404.5 Z"/></g>
<g><path style="opacity:1" fill="#69361d" d="M 112.5,388.5 C 113.5,388.5 114.5,388.5 115.5,388.5C 115.244,391.598 114.578,394.598 113.5,397.5C 110.932,402.525 108.932,407.859 107.5,413.5C 103.871,421.202 100.704,429.202 98,437.5C 97.6232,438.942 96.7899,439.942 95.5,440.5C 101.474,423.273 107.141,405.94 112.5,388.5 Z"/></g>
<g><path style="opacity:1" fill="#43aae1" d="M 171.5,410.5 C 173.576,415.651 175.91,420.651 178.5,425.5C 179.568,426.434 180.901,426.768 182.5,426.5C 181.656,422.126 180.656,417.793 179.5,413.5C 186.515,414.047 193.515,414.713 200.5,415.5C 202.91,421.318 205.577,426.985 208.5,432.5C 209.568,433.434 210.901,433.768 212.5,433.5C 211.146,427.418 209.479,421.418 207.5,415.5C 219.871,417.121 231.871,420.288 243.5,425C 249.565,428.577 249.899,432.577 244.5,437C 231.992,442.168 218.992,445.501 205.5,447C 158.68,452.441 112.014,451.441 65.5,444C 59.7148,442.738 54.0482,441.072 48.5,439C 45.4384,437.939 42.9384,436.106 41,433.5C 40.3131,431.08 40.8131,428.913 42.5,427C 51.1955,422.025 60.5288,418.858 70.5,417.5C 69.3664,420.37 68.6997,423.37 68.5,426.5C 70.099,426.768 71.4324,426.434 72.5,425.5C 74.5505,422.342 76.2172,419.008 77.5,415.5C 78.4486,416.152 79.6153,416.486 81,416.5C 87.1635,415.734 93.3301,415.067 99.5,414.5C 97.2451,422.933 94.5784,431.266 91.5,439.5C 92.6888,440.429 94.0222,440.762 95.5,440.5C 96.7899,439.942 97.6232,438.942 98,437.5C 100.704,429.202 103.871,421.202 107.5,413.5C 129.172,413.227 150.505,412.227 171.5,410.5 Z"/></g>
</svg>
