<?xml version="1.0" encoding="UTF-8"?>
<!DOCTYPE svg PUBLIC "-//W3C//DTD SVG 1.1//EN" "http://www.w3.org/Graphics/SVG/1.1/DTD/svg11.dtd">
<svg xmlns="http://www.w3.org/2000/svg" version="1.1" width="54px" height="54px" style="shape-rendering:geometricPrecision; text-rendering:geometricPrecision; image-rendering:optimizeQuality; fill-rule:evenodd; clip-rule:evenodd" xmlns:xlink="http://www.w3.org/1999/xlink">
<g><path style="opacity:1" fill="#698cf0" d="M 37.5,4.5 C 33.8455,4.05775 30.1788,3.72442 26.5,3.5C 25.448,3.35055 24.448,3.51722 23.5,4C 24.7101,5.0391 25.7101,6.20577 26.5,7.5C 23.858,7.51234 22.5246,6.17901 22.5,3.5C 22.5,3.16667 22.5,2.83333 22.5,2.5C 25.3035,1.36216 28.3035,1.19549 31.5,2C 33.8516,2.24013 35.8516,3.07346 37.5,4.5 Z"/></g>
<g><path style="opacity:1" fill="#006bf4" d="M 26.5,3.5 C 27.6085,4.28997 28.9419,4.78997 30.5,5C 29.944,5.38258 29.6107,5.88258 29.5,6.5C 29.5,6.83333 29.5,7.16667 29.5,7.5C 28.5,7.5 27.5,7.5 26.5,7.5C 25.7101,6.20577 24.7101,5.0391 23.5,4C 24.448,3.51722 25.448,3.35055 26.5,3.5 Z"/></g>
<g><path style="opacity:1" fill="#0182f1" d="M 22.5,3.5 C 22.5246,6.17901 23.858,7.51234 26.5,7.5C 27.5,7.5 28.5,7.5 29.5,7.5C 30.1667,7.5 30.5,7.83333 30.5,8.5C 26.4862,8.66551 22.4862,8.49885 18.5,8C 18.0426,7.58605 17.7093,7.08605 17.5,6.5C 18.7277,4.67905 20.3944,3.67905 22.5,3.5 Z"/></g>
<g><path style="opacity:1" fill="#5fb3f1" d="M 17.5,3.5 C 15.0627,8.10507 16.7294,10.1051 22.5,9.5C 21.0697,10.5375 19.403,11.2041 17.5,11.5C 16.1667,11.5 14.8333,11.5 13.5,11.5C 13.3253,9.3792 13.6586,7.3792 14.5,5.5C 14.9731,4.09368 15.9731,3.42702 17.5,3.5 Z"/></g>
<g><path style="opacity:1" fill="#6aaaf4" d="M 22.5,2.5 C 22.5,2.83333 22.5,3.16667 22.5,3.5C 20.3944,3.67905 18.7277,4.67905 17.5,6.5C 17.7093,7.08605 18.0426,7.58605 18.5,8C 22.4862,8.49885 26.4862,8.66551 30.5,8.5C 31.1667,8.5 31.5,8.83333 31.5,9.5C 28.5,9.5 25.5,9.5 22.5,9.5C 16.7294,10.1051 15.0627,8.10507 17.5,3.5C 18.9187,2.54885 20.5853,2.21552 22.5,2.5 Z"/></g>
<g><path style="opacity:1" fill="#6680f5" d="M 29.5,7.5 C 29.5,7.16667 29.5,6.83333 29.5,6.5C 33.2368,6.2407 35.5702,7.90736 36.5,11.5C 34.597,11.2041 32.9303,10.5375 31.5,9.5C 31.5,8.83333 31.1667,8.5 30.5,8.5C 30.5,7.83333 30.1667,7.5 29.5,7.5 Z"/></g>
<g><path style="opacity:1" fill="#2c5ef7" d="M 26.5,3.5 C 30.1788,3.72442 33.8455,4.05775 37.5,4.5C 39.0269,4.42702 40.0269,5.09368 40.5,6.5C 37.8501,7.45711 37.1834,9.12378 38.5,11.5C 37.8333,11.5 37.1667,11.5 36.5,11.5C 35.5702,7.90736 33.2368,6.2407 29.5,6.5C 29.6107,5.88258 29.944,5.38258 30.5,5C 28.9419,4.78997 27.6085,4.28997 26.5,3.5 Z"/></g>
<g><path style="opacity:1" fill="#0e4ff6" d="M 40.5,6.5 C 41.8333,7.5 43.1667,8.5 44.5,9.5C 45.0838,12.285 44.0838,13.9517 41.5,14.5C 40.1667,13.8333 39.1667,12.8333 38.5,11.5C 37.1834,9.12378 37.8501,7.45711 40.5,6.5 Z"/></g>
<g><path style="opacity:1" fill="#4ebfeb" d="M 14.5,5.5 C 13.6586,7.3792 13.3253,9.3792 13.5,11.5C 14.8333,11.5 16.1667,11.5 17.5,11.5C 16.5,13.1667 15.1667,14.5 13.5,15.5C 11.8333,14.8333 10.1667,14.1667 8.5,13.5C 9.23411,12.2921 9.56745,10.9587 9.5,9.5C 10.5846,7.41311 12.2512,6.07978 14.5,5.5 Z"/></g>
<g><path style="opacity:0.643" fill="#c0d2f7" d="M 36.5,11.5 C 37.1667,11.5 37.8333,11.5 38.5,11.5C 39.1667,12.8333 40.1667,13.8333 41.5,14.5C 41.5,15.1667 41.5,15.8333 41.5,16.5C 39.5,15.1667 37.8333,13.5 36.5,11.5 Z"/></g>
<g><path style="opacity:1" fill="#66d3e5" d="M 9.5,9.5 C 9.56745,10.9587 9.23411,12.2921 8.5,13.5C 6.20432,13.8041 5.87099,14.8041 7.5,16.5C 6.5,16.5 5.5,16.5 4.5,16.5C 5.01019,13.3257 6.67686,10.9923 9.5,9.5 Z"/></g>
<g><path style="opacity:1" fill="#4dcce7" d="M 8.5,13.5 C 10.1667,14.1667 11.8333,14.8333 13.5,15.5C 13.0679,16.7095 12.4013,17.7095 11.5,18.5C 10.7095,17.5987 9.70951,16.9321 8.5,16.5C 8.16667,16.5 7.83333,16.5 7.5,16.5C 5.87099,14.8041 6.20432,13.8041 8.5,13.5 Z"/></g>
<g><path style="opacity:1" fill="#4568f3" d="M 44.5,9.5 C 45.4013,10.2905 46.0679,11.2905 46.5,12.5C 44.2263,14.1446 44.2263,15.6446 46.5,17C 45.6634,18.0113 45.33,19.1779 45.5,20.5C 44.8333,20.1667 44.1667,19.8333 43.5,19.5C 42.5987,18.7095 41.9321,17.7095 41.5,16.5C 41.5,15.8333 41.5,15.1667 41.5,14.5C 44.0838,13.9517 45.0838,12.285 44.5,9.5 Z"/></g>
<g><path style="opacity:1" fill="#54dde0" d="M 4.5,16.5 C 5.5,16.5 6.5,16.5 7.5,16.5C 7.83333,16.5 8.16667,16.5 8.5,16.5C 8.44805,18.9029 8.78138,21.2362 9.5,23.5C 7.47805,22.493 6.14472,20.8263 5.5,18.5C 4.29488,19.5769 3.62822,20.9102 3.5,22.5C 3.5,23.1667 3.16667,23.5 2.5,23.5C 2.17057,20.7718 2.83724,18.4385 4.5,16.5 Z"/></g>
<g><path style="opacity:1" fill="#6fdbe3" d="M 8.5,16.5 C 9.70951,16.9321 10.7095,17.5987 11.5,18.5C 11.2041,20.403 10.5375,22.0697 9.5,23.5C 8.78138,21.2362 8.44805,18.9029 8.5,16.5 Z"/></g>
<g><path style="opacity:1" fill="#2056f4" d="M 46.5,12.5 C 47.9063,12.9731 48.573,13.9731 48.5,15.5C 48.7271,17.9328 47.7271,19.5994 45.5,20.5C 45.33,19.1779 45.6634,18.0113 46.5,17C 44.2263,15.6446 44.2263,14.1446 46.5,12.5 Z"/></g>
<g><path style="opacity:1" fill="#195ff7" d="M 48.5,15.5 C 49.3382,15.8417 49.6716,16.5084 49.5,17.5C 49.6621,19.5273 49.4955,21.5273 49,23.5C 47.9887,22.6634 46.8221,22.33 45.5,22.5C 45.5,21.8333 45.5,21.1667 45.5,20.5C 47.7271,19.5994 48.7271,17.9328 48.5,15.5 Z"/></g>
<g><path style="opacity:1" fill="#1de1d7" d="M 9.5,23.5 C 9.5,25.8333 9.5,28.1667 9.5,30.5C 8.66175,30.1583 8.32842,29.4916 8.5,28.5C 8.86822,25.3759 7.70156,23.0425 5,21.5C 4.61742,22.056 4.11742,22.3893 3.5,22.5C 3.62822,20.9102 4.29488,19.5769 5.5,18.5C 6.14472,20.8263 7.47805,22.493 9.5,23.5 Z"/></g>
<g><path style="opacity:1" fill="#1d67f0" d="M 49.5,17.5 C 50.3382,17.8417 50.6716,18.5084 50.5,19.5C 50.5,22.5 50.5,25.5 50.5,28.5C 48.5153,27.9525 46.8486,26.9525 45.5,25.5C 45.5,24.5 45.5,23.5 45.5,22.5C 46.8221,22.33 47.9887,22.6634 49,23.5C 49.4955,21.5273 49.6621,19.5273 49.5,17.5 Z"/></g>
<g><path style="opacity:1" fill="#57edd5" d="M 8.5,28.5 C 7.17966,27.4699 5.67966,26.4699 4,25.5C 3.51722,26.448 3.35055,27.448 3.5,28.5C 3.5,28.8333 3.5,29.1667 3.5,29.5C 3.16667,29.5 2.83333,29.5 2.5,29.5C 1.16667,27.5 1.16667,25.5 2.5,23.5C 3.16667,23.5 3.5,23.1667 3.5,22.5C 4.11742,22.3893 4.61742,22.056 5,21.5C 7.70156,23.0425 8.86822,25.3759 8.5,28.5 Z"/></g>
<g><path style="opacity:1" fill="#88b2fb" d="M 50.5,19.5 C 53.1364,24.9799 52.803,30.3132 49.5,35.5C 49.5,35.1667 49.5,34.8333 49.5,34.5C 49.5569,33.391 49.8902,32.391 50.5,31.5C 50.5,30.5 50.5,29.5 50.5,28.5C 50.5,25.5 50.5,22.5 50.5,19.5 Z"/></g>
<g><path style="opacity:1" fill="#2af1cc" d="M 8.5,28.5 C 8.32842,29.4916 8.66175,30.1583 9.5,30.5C 10.1098,31.391 10.4431,32.391 10.5,33.5C 8.31344,31.5784 5.98011,29.9117 3.5,28.5C 3.35055,27.448 3.51722,26.448 4,25.5C 5.67966,26.4699 7.17966,27.4699 8.5,28.5 Z"/></g>
<g><path style="opacity:1" fill="#0073f3" d="M 45.5,25.5 C 46.8486,26.9525 48.5153,27.9525 50.5,28.5C 50.5,29.5 50.5,30.5 50.5,31.5C 48.6458,30.759 46.9791,29.759 45.5,28.5C 45.5,27.5 45.5,26.5 45.5,25.5 Z"/></g>
<g><path style="opacity:1" fill="#007def" d="M 45.5,28.5 C 46.9791,29.759 48.6458,30.759 50.5,31.5C 49.8902,32.391 49.5569,33.391 49.5,34.5C 48.2101,33.9423 47.3768,32.9423 47,31.5C 46.6667,32.1667 46.3333,32.8333 46,33.5C 45.5065,31.8659 45.3398,30.1992 45.5,28.5 Z"/></g>
<g><path style="opacity:1" fill="#00f7c6" d="M 3.5,28.5 C 5.98011,29.9117 8.31344,31.5784 10.5,33.5C 10.5,34.1667 10.5,34.8333 10.5,35.5C 8.84702,35.3404 7.51369,34.6737 6.5,33.5C 5.14702,32.4739 4.14702,31.1405 3.5,29.5C 3.5,29.1667 3.5,28.8333 3.5,28.5 Z"/></g>
<g><path style="opacity:1" fill="#90fbdd" d="M 2.5,29.5 C 2.83333,29.5 3.16667,29.5 3.5,29.5C 4.14702,31.1405 5.14702,32.4739 6.5,33.5C 5.54885,34.9187 5.21552,36.5853 5.5,38.5C 3.52751,35.9164 2.52751,32.9164 2.5,29.5 Z"/></g>
<g><path style="opacity:1" fill="#3193ed" d="M 43.5,19.5 C 44.1667,19.8333 44.8333,20.1667 45.5,20.5C 45.5,21.1667 45.5,21.8333 45.5,22.5C 45.5,23.5 45.5,24.5 45.5,25.5C 45.5,26.5 45.5,27.5 45.5,28.5C 45.3398,30.1992 45.5065,31.8659 46,33.5C 46.3333,32.8333 46.6667,32.1667 47,31.5C 47.3768,32.9423 48.2101,33.9423 49.5,34.5C 49.5,34.8333 49.5,35.1667 49.5,35.5C 49.4431,36.609 49.1098,37.609 48.5,38.5C 47.4168,38.4606 46.4168,38.1272 45.5,37.5C 44.5258,35.2573 44.1924,32.924 44.5,30.5C 44.577,26.7852 44.2436,23.1185 43.5,19.5 Z"/></g>
<g><path style="opacity:1" fill="#00fbc6" d="M 6.5,33.5 C 7.51369,34.6737 8.84702,35.3404 10.5,35.5C 10.7822,36.7777 11.4489,37.7777 12.5,38.5C 10.1256,39.6861 7.79222,39.6861 5.5,38.5C 5.21552,36.5853 5.54885,34.9187 6.5,33.5 Z"/></g>
<g><path style="opacity:1" fill="#39a9f1" d="M 44.5,30.5 C 44.1924,32.924 44.5258,35.2573 45.5,37.5C 46.4168,38.1272 47.4168,38.4606 48.5,38.5C 48.5,39.1667 48.1667,39.5 47.5,39.5C 45.4471,39.5979 43.7804,38.9313 42.5,37.5C 42.5,36.8333 42.5,36.1667 42.5,35.5C 42.7959,33.597 43.4625,31.9303 44.5,30.5 Z"/></g>
<g><path style="opacity:1" fill="#5cfacf" d="M 5.5,38.5 C 7.79222,39.6861 10.1256,39.6861 12.5,38.5C 12.5,39.5 12.5,40.5 12.5,41.5C 14.1667,41.5 15.8333,41.5 17.5,41.5C 18.7095,41.9321 19.7095,42.5987 20.5,43.5C 18.9557,43.7031 17.6223,44.3698 16.5,45.5C 15.2011,44.91 14.3678,43.91 14,42.5C 13.5906,44.6951 14.0906,46.6951 15.5,48.5C 11.1667,46.1667 7.83333,42.8333 5.5,38.5 Z"/></g>
<g><path style="opacity:1" fill="#29b2ec" d="M 42.5,37.5 C 43.7804,38.9313 45.4471,39.5979 47.5,39.5C 47.573,41.0269 46.9063,42.0269 45.5,42.5C 43.3867,41.7437 41.3867,41.5771 39.5,42C 40.7811,40.5913 41.7811,39.0913 42.5,37.5 Z"/></g>
<g><path style="opacity:1" fill="#71f9d4" d="M 10.5,33.5 C 12.3719,36.5819 14.7052,39.2486 17.5,41.5C 15.8333,41.5 14.1667,41.5 12.5,41.5C 12.5,40.5 12.5,39.5 12.5,38.5C 11.4489,37.7777 10.7822,36.7777 10.5,35.5C 10.5,34.8333 10.5,34.1667 10.5,33.5 Z"/></g>
<g><path style="opacity:1" fill="#45cce2" d="M 40.5,38.5 C 38.6878,40.4605 37.6878,42.7939 37.5,45.5C 35.1582,44.7893 34.8249,43.456 36.5,41.5C 37.2623,39.7376 38.5956,38.7376 40.5,38.5 Z"/></g>
<g><path style="opacity:1" fill="#3ac1e8" d="M 42.5,35.5 C 42.5,36.1667 42.5,36.8333 42.5,37.5C 41.7811,39.0913 40.7811,40.5913 39.5,42C 41.3867,41.5771 43.3867,41.7437 45.5,42.5C 44.5,44.1667 43.1667,45.5 41.5,46.5C 40.1667,46.1667 38.8333,45.8333 37.5,45.5C 37.6878,42.7939 38.6878,40.4605 40.5,38.5C 40.427,36.9731 41.0937,35.9731 42.5,35.5 Z"/></g>
<g><path style="opacity:1" fill="#05f9c6" d="M 20.5,43.5 C 21.1667,44.1667 21.8333,44.8333 22.5,45.5C 22.5394,46.5832 22.8728,47.5832 23.5,48.5C 22.8333,48.8333 22.1667,49.1667 21.5,49.5C 19.5466,48.8444 17.5466,48.5111 15.5,48.5C 14.0906,46.6951 13.5906,44.6951 14,42.5C 14.3678,43.91 15.2011,44.91 16.5,45.5C 17.6223,44.3698 18.9557,43.7031 20.5,43.5 Z"/></g>
<g><path style="opacity:1" fill="#5fd9e4" d="M 36.5,41.5 C 34.8249,43.456 35.1582,44.7893 37.5,45.5C 38.8333,45.8333 40.1667,46.1667 41.5,46.5C 40.7095,47.4013 39.7095,48.0679 38.5,48.5C 37.4479,46.744 35.7812,46.0773 33.5,46.5C 32.8166,44.8235 31.4832,44.1568 29.5,44.5C 31.649,43.2638 33.9823,42.2638 36.5,41.5 Z"/></g>
<g><path style="opacity:1" fill="#37e9d6" d="M 20.5,43.5 C 22.2915,43.366 23.9582,43.6993 25.5,44.5C 27.2922,45.3091 29.2922,45.8091 31.5,46C 30.944,46.3826 30.6107,46.8826 30.5,47.5C 29.1667,47.5 27.8333,47.5 26.5,47.5C 25.3951,46.3995 24.0618,45.7329 22.5,45.5C 21.8333,44.8333 21.1667,44.1667 20.5,43.5 Z"/></g>
<g><path style="opacity:1" fill="#64dddf" d="M 33.5,46.5 C 35.7812,46.0773 37.4479,46.744 38.5,48.5C 37.2196,49.9313 35.5529,50.5979 33.5,50.5C 33.5,50.1667 33.5,49.8333 33.5,49.5C 34.625,48.6522 34.625,47.6522 33.5,46.5 Z"/></g>
<g><path style="opacity:1" fill="#00dbd5" d="M 25.5,44.5 C 26.8333,44.5 28.1667,44.5 29.5,44.5C 31.4832,44.1568 32.8166,44.8235 33.5,46.5C 34.625,47.6522 34.625,48.6522 33.5,49.5C 32.2905,49.0679 31.2905,48.4013 30.5,47.5C 30.6107,46.8826 30.944,46.3826 31.5,46C 29.2922,45.8091 27.2922,45.3091 25.5,44.5 Z"/></g>
<g><path style="opacity:0.997" fill="#81f8da" d="M 22.5,45.5 C 24.0618,45.7329 25.3951,46.3995 26.5,47.5C 28.0361,50.0922 30.3695,51.0922 33.5,50.5C 29.3537,51.647 25.0204,51.8136 20.5,51C 18.5087,50.6264 16.842,49.793 15.5,48.5C 17.5466,48.5111 19.5466,48.8444 21.5,49.5C 22.1667,49.1667 22.8333,48.8333 23.5,48.5C 22.8728,47.5832 22.5394,46.5832 22.5,45.5 Z"/></g>
<g><path style="opacity:1" fill="#01e9cc" d="M 26.5,47.5 C 27.8333,47.5 29.1667,47.5 30.5,47.5C 31.2905,48.4013 32.2905,49.0679 33.5,49.5C 33.5,49.8333 33.5,50.1667 33.5,50.5C 30.3695,51.0922 28.0361,50.0922 26.5,47.5 Z"/></g>
</svg>
